# xmcd
#
# Track frame offsets: 
#        150
#        15403
#        35296
#        47082
#        65116
#        77730
#        95663
#        109594
#        119389
#        139314
#
# Disc length: 2011 seconds
#
# Revision: 0
# Processed by: cddbd v1.5.2PL0 Copyright (c) Steve Scherf et al.
# Submitted via: ExactAudioCopy v1.0b3
#
DISCID=8307d90a
DTITLE=Holly Golightly and The Brokeoffs - Long Distance
DYEAR=1900
DGENRE=
TTITLE0=No Big Thing
TTITLE1=Mother Earth
TTITLE2=Eye For An Empty Heart
TTITLE3=Dear John
TTITLE4=Come The Day
TTITLE5=Black Night
TTITLE6=I Don't Know
TTITLE7=My Love Is
TTITLE8=Your Love Is Mine
TTITLE9=Big Boss Man
EXTD=
EXTT0=
EXTT1=
EXTT2=
EXTT3=
EXTT4=
EXTT5=
EXTT6=
EXTT7=
EXTT8=
EXTT9=
PLAYORDER=
